<?xml version="1.0" encoding="UTF-8" standalone="no"?>
<!DOCTYPE svg PUBLIC "-//W3C//DTD SVG 1.1//EN" "http://www.w3.org/Graphics/SVG/1.1/DTD/svg11.dtd">
<svg width="100%" height="100%" viewBox="0 0 48 54" version="1.1" xmlns="http://www.w3.org/2000/svg" xmlns:xlink="http://www.w3.org/1999/xlink" xml:space="preserve" xmlns:serif="http://www.serif.com/" style="fill-rule:evenodd;clip-rule:evenodd;stroke-linecap:round;stroke-linejoin:round;stroke-miterlimit:3;">
    <g transform="matrix(1,0,0,1,-6341.64,-313.167)">
        <g id="home-button-2" serif:id="home button 2" transform="matrix(1,0,0,1.12634,133.238,-45.4649)">
            <rect x="6208.4" y="318.404" width="47.805" height="47.805" style="fill:none;"/>
            <clipPath id="_clip1">
                <rect x="6208.4" y="318.404" width="47.805" height="47.805"/>
            </clipPath>
            <g clip-path="url(#_clip1)">
                <g transform="matrix(-0.599795,4.86834e-18,5.14411e-18,-0.527887,9860.18,467.064)">
                    <path d="M6049.61,205.638L6024.3,214.382L6024.3,280.231L6049.61,271.486L6049.61,205.638Z" style="fill:rgb(0,103,113);stroke:rgb(0,103,113);stroke-width:1.17px;stroke-dasharray:2.33,2.33,0,0;stroke-dashoffset:8.17;"/>
                </g>
                <g transform="matrix(0.675813,0,0,0.639582,2139.95,183.082)">
                    <path d="M6033.95,248.43C6033.91,251.038 6034.81,254.215 6034.94,257.315C6035.26,264.824 6035.24,272.309 6036.85,265.903C6037.47,263.437 6037.76,256.709 6038.02,248.726C6038.24,242.286 6038.65,249.451 6038.7,250.78C6038.8,253.641 6038.35,260.424 6038.57,263.896C6038.8,267.563 6041.34,269.292 6040.6,277.933C6039.61,289.471 6043.48,287.858 6043.24,280.606C6043.36,276.06 6042.36,268.467 6042.49,264.211C6042.13,260.529 6043.5,262.469 6043.38,265.321M6043.38,265.251C6043.91,269.818 6044.88,280.245 6044.9,281.109C6045.03,286.742 6046.9,281.411 6046.67,268.599M6046.7,268.599C6046.7,268.599 6046.98,259.083 6045.53,245.309C6045.86,249.641 6046.26,255.7 6046.45,256.894C6046.63,258.088 6048.35,267.023 6049.57,257.693C6049.74,253.284 6049.55,242.777 6045.99,238.457C6044.71,236.419 6043.82,235.549 6044.79,232.661C6045.77,229.772 6040.44,223.85 6037.87,229.25C6037.29,231.084 6039.46,233.143 6038.74,234.711C6038.13,236.056 6034,237.539 6033.96,242.95C6033.92,248.361 6033.97,249.565 6033.97,249.565" style="fill:white;stroke:rgb(0,103,113);stroke-width:1px;"/>
                </g>
                <g transform="matrix(0.675813,0,0,0.639582,2139.68,182.579)">
                    <path d="M6042.9,243.443C6042.77,243.824 6042.79,244.432 6042.79,244.082" style="fill:none;stroke:rgb(0,103,113);stroke-width:3px;"/>
                </g>
                <g transform="matrix(0.675813,0,0,0.639582,2155.45,182.579)">
                    <path d="M6042.9,243.443C6042.77,243.824 6042.79,244.432 6042.79,244.082" style="fill:none;stroke:white;stroke-width:3px;"/>
                </g>
            </g>
        </g>
    </g>
</svg>
